HIERARCHY
ROOT Hips
{
	OFFSET 0.000000 0.000000 0.000000 
	CHANNELS 6 Xposition Yposition Zposition Zrotation Yrotation Xrotation
	JOINT LeftUpLeg
	{
		OFFSET 1.363060 -1.794630 0.839290 
		CHANNELS 3 Zrotation Yrotation Xrotation
		JOINT LeftLeg
		{
			OFFSET 2.448110 -6.726130 0.000000 
			CHANNELS 3 Zrotation Yrotation Xrotation
			JOINT LeftFoot
			{
				OFFSET 2.562200 -7.039590 0.000000 
				CHANNELS 3 Zrotation Yrotation Xrotation
				JOINT LeftToeBase
				{
					OFFSET 0.157640 -0.433110 2.322550 
					CHANNELS 3 Zrotation Yrotation Xrotation
					End Site
					{
						OFFSET 0.000000 0.000000 0.000000 
					}
				}
			}
		}
	}
	JOINT RightUpLeg
	{
		OFFSET -1.305520 -1.794630 0.839290 
		CHANNELS 3 Zrotation Yrotation Xrotation
		JOINT RightLeg
		{
			OFFSET -2.542530 -6.985550 0.000000 
			CHANNELS 3 Zrotation Yrotation Xrotation
			JOINT RightFoot
			{
				OFFSET -2.568260 -7.056230 0.000000 
				CHANNELS 3 Zrotation Yrotation Xrotation
				JOINT RightToeBase
				{
					OFFSET -0.164730 -0.452590 2.363150 
					CHANNELS 3 Zrotation Yrotation Xrotation
					End Site
					{
						OFFSET 0.000000 0.000000 0.000000 
					}
				}
			}
		}
	}
	JOINT Spine
	{
		OFFSET 0.028270 2.035590 -0.193380 
		CHANNELS 3 Zrotation Yrotation Xrotation
		JOINT Spine1
		{
			OFFSET 0.056720 2.048850 -0.042750 
			CHANNELS 3 Zrotation Yrotation Xrotation
			JOINT Neck1
			{
				OFFSET -0.054170 1.746240 0.172020 
				CHANNELS 3 Zrotation Yrotation Xrotation
				JOINT Head
				{
					OFFSET 0.104070 1.761360 -0.123970 
					CHANNELS 3 Zrotation Yrotation Xrotation
					End Site
					{
						OFFSET 0.000000 0.000000 0.000000 
					}
				}
			}
			JOINT LeftArm
			{
				OFFSET 3.362410 1.200890 -0.311210 
				CHANNELS 3 Zrotation Yrotation Xrotation
				JOINT LeftForeArm
				{
					OFFSET 4.983000 -0.000000 -0.000000 
					CHANNELS 3 Zrotation Yrotation Xrotation
					JOINT LeftHand
					{
						OFFSET 3.483560 -0.000000 -0.000000 
						CHANNELS 3 Zrotation Yrotation Xrotation
						JOINT LeftHandIndex1
						{
							OFFSET 0.715260 -0.000000 -0.000000 
							CHANNELS 3 Zrotation Yrotation Xrotation
							End Site
							{
								OFFSET 0.000000 0.000000 0.000000 
							}
						}
					}
				}
			}
			JOINT RightArm
			{
				OFFSET -3.136600 1.374050 -0.404650 
				CHANNELS 3 Zrotation Yrotation Xrotation
				JOINT RightForeArm
				{
					OFFSET -5.241900 -0.000000 -0.000000 
					CHANNELS 3 Zrotation Yrotation Xrotation
					JOINT RightHand
					{
						OFFSET -3.444170 -0.000000 -0.000000 
						CHANNELS 3 Zrotation Yrotation Xrotation
						JOINT RightHandIndex1
						{
							OFFSET -0.622530 -0.000000 -0.000000 
							CHANNELS 3 Zrotation Yrotation Xrotation
							End Site
							{
								OFFSET 0.000000 0.000000 0.000000 
							}
						}
					}
				}
			}
		}
	}
}
MOTION
Frames: 17
Frame Time: 0.041667
0.080331 17.898419 -0.884040 3.756797 -8.272340 3.424282 -21.650547 -4.003024 -3.056823 -0.866892 3.150458 12.666925 -0.361746 2.048422 -1.699542 0.377600 -3.946400 -10.926000 10.310649 11.726244 -9.792985 -1.370562 -8.482363 26.098573 -0.629092 1.472616 -8.328447 -0.030400 -1.126000 3.095500 1.772055 -2.223481 -0.729525 5.334033 -0.761942 0.901051 2.446673 5.375279 15.389642 3.401100 1.715200 10.034500 -59.245766 -46.714609 36.699177 123.189276 -57.028395 -89.095093 0.827254 -0.235043 4.326282 -7.125000 0.000000 0.000000 70.561686 -5.591504 8.100129 -18.258618 26.030725 -5.133942 0.697237 -0.843582 16.761789 7.125000 0.000000 0.000000 
0.082030 17.900218 -0.879844 3.721079 -8.280162 3.419453 -21.625560 -3.969621 -3.019066 -0.868533 3.142012 12.645894 -0.360301 2.045057 -1.730091 0.376900 -3.942700 -10.915500 10.337231 11.692048 -9.765572 -1.371386 -8.481176 26.098650 -0.642474 1.555353 -8.318134 -0.035300 -1.213200 3.335500 1.786405 -2.235915 -0.701614 5.322800 -0.769062 0.939566 2.295889 5.428834 15.224205 3.343500 1.737800 10.005100 -58.647143 -47.172572 35.981149 122.895422 -57.122090 -88.876398 0.828233 -0.243690 4.358588 -7.125000 0.000000 0.000000 70.511159 -5.426746 8.078824 -18.249519 26.021463 -5.131496 0.686069 -0.851017 16.946702 7.125000 0.000000 0.000000 
0.082529 17.901517 -0.878345 3.713210 -8.275702 3.421287 -21.620949 -3.934566 -3.001032 -0.871165 3.129458 12.614512 -0.348878 1.986558 -1.754406 0.374800 -3.931900 -10.885300 10.342273 11.671689 -9.765179 -1.370616 -8.479974 26.094443 -0.641187 1.551663 -8.307595 -0.032400 -1.161400 3.192900 1.794532 -2.252076 -0.669319 5.335025 -0.779428 0.996747 2.178363 5.512635 15.016856 3.296900 1.781200 9.952100 -58.119869 -47.560654 35.334379 122.600142 -57.216950 -88.655149 0.829259 -0.251655 4.468147 -7.125000 0.000000 0.000000 70.472598 -5.283536 8.098782 -18.285682 26.063776 -5.149628 0.679549 -0.851669 17.083360 7.125000 0.000000 0.000000 
0.082529 17.900917 -0.879544 3.772336 -8.273314 3.400658 -21.681747 -3.922798 -2.974494 -0.875705 3.110506 12.565525 -0.350186 1.986239 -1.721270 0.377800 -3.947700 -10.929500 10.283317 11.698992 -9.752041 -1.369384 -8.479881 26.088784 -0.639512 1.524151 -8.347846 -0.031200 -1.140600 3.135700 1.793541 -2.271260 -0.684838 5.379508 -0.786986 0.936144 2.111382 5.605834 14.832988 3.274700 1.830500 9.911200 -57.713549 -47.893632 34.809110 122.413952 -57.278213 -88.516867 0.832478 -0.254800 4.605833 -7.125000 0.000000 0.000000 70.425322 -5.236016 8.211777 -18.337406 26.125756 -5.176039 0.688937 -0.850513 17.082252 7.125000 0.000000 0.000000 
0.083528 17.899518 -0.877646 3.828289 -8.280358 3.382295 -21.751457 -3.967584 -2.913508 -0.880843 3.091764 12.515826 -0.366173 2.062437 -1.681500 0.381700 -3.967700 -10.985900 10.219118 11.680047 -9.746623 -1.369152 -8.480548 26.085754 -0.641268 1.541904 -8.319553 -0.033000 -1.172800 3.224400 1.789473 -2.284194 -0.700303 5.408010 -0.792803 0.897610 2.078303 5.656413 14.571629 3.263300 1.864000 9.824400 -57.336515 -48.309292 34.299944 122.148281 -57.362412 -88.317544 0.834460 -0.261050 4.725761 -7.125000 0.000000 0.000000 70.406005 -5.211577 8.325040 -18.406560 26.204314 -5.207266 0.697214 -0.837845 17.008060 7.125000 0.000000 0.000000 
0.085327 17.900518 -0.874049 3.803565 -8.299862 3.397635 -21.738891 -4.005170 -2.855932 -0.888217 3.068873 12.451446 -0.381327 2.142259 -1.677648 0.385500 -3.987100 -11.040500 10.235232 11.676359 -9.765288 -1.370952 -8.484158 26.097035 -0.638830 1.532601 -8.308467 -0.032500 -1.163600 3.199200 1.800119 -2.282986 -0.682298 5.398697 -0.794418 0.938075 2.048515 5.675386 14.316484 3.246000 1.885400 9.751900 -56.943759 -48.757466 33.778682 121.758565 -57.486744 -88.023888 0.840320 -0.271486 4.877028 -7.125000 0.000000 0.000000 70.402676 -5.128134 8.371096 -18.490571 26.299612 -5.246380 0.698069 -0.827666 17.000770 7.125000 0.000000 0.000000 
0.084527 17.902116 -0.872550 3.776424 -8.321719 3.414644 -21.710392 -4.042928 -2.840421 -0.890841 3.063989 12.435048 -0.392271 2.204061 -1.696437 0.390300 -4.011600 -11.109300 10.264927 11.691192 -9.777461 -1.369182 -8.480864 26.088417 -0.635121 1.521493 -8.283865 -0.032600 -1.165100 3.203100 1.826259 -2.271439 -0.685127 5.436312 -0.787261 0.930194 1.915686 5.729515 14.177507 3.195100 1.908900 9.732700 -56.590288 -49.148196 33.300728 121.374272 -57.607099 -87.732281 0.842683 -0.280587 4.941041 -7.125000 0.000000 0.000000 70.397911 -5.047252 8.387463 -18.566582 26.387470 -5.284626 0.701762 -0.827265 17.029626 7.125000 0.000000 0.000000 
0.084328 17.900717 -0.872850 3.782400 -8.335484 3.426598 -21.712755 -3.995915 -2.890205 -0.890187 3.066154 12.438912 -0.391705 2.197177 -1.662069 0.400200 -4.061500 -11.249700 10.261267 11.690953 -9.780725 -1.366005 -8.475060 26.071518 -0.626689 1.477817 -8.269756 -0.028600 -1.092100 3.002200 1.839102 -2.271575 -0.720843 5.466944 -0.783680 0.852627 1.870981 5.781293 14.072453 3.186600 1.933000 9.712300 -56.137114 -49.474277 32.765624 121.094402 -57.693991 -87.519584 0.842154 -0.286580 4.867743 -7.125000 0.000000 0.000000 70.376112 -5.065113 8.528323 -18.673595 26.516016 -5.338012 0.699629 -0.823871 16.980046 7.125000 0.000000 0.000000 
0.084427 17.900118 -0.872051 3.751146 -8.320058 3.459443 -21.672553 -3.976205 -2.934628 -0.891260 3.064452 12.430633 -0.379474 2.130237 -1.640488 0.384700 -3.983000 -11.028900 10.287844 11.693344 -9.786674 -1.364274 -8.469844 26.059702 -0.632911 1.512589 -8.276330 -0.031800 -1.150700 3.163600 1.856914 -2.277667 -0.737725 5.474238 -0.786433 0.819213 1.950965 5.827700 13.918942 3.225900 1.967200 9.673600 -55.643218 -49.840389 32.193444 120.786118 -57.790286 -87.285107 0.843028 -0.293571 4.772025 -7.125000 0.000000 0.000000 70.338155 -5.051541 8.642414 -18.732847 26.592751 -5.369757 0.681504 -0.830015 16.846172 7.125000 0.000000 0.000000 
0.084527 17.900118 -0.869153 3.752018 -8.332839 3.438305 -21.678698 -3.961750 -2.881397 -0.895118 3.048448 12.388841 -0.381260 2.140552 -1.653208 0.377000 -3.943200 -10.917000 10.286258 11.644189 -9.774818 -1.366675 -8.471771 26.067458 -0.645237 1.593007 -8.251473 -0.032800 -1.169000 3.213900 1.859246 -2.271958 -0.703855 5.479655 -0.788484 0.858934 2.064248 5.867520 13.627884 3.274300 2.008200 9.585000 -55.183293 -50.282400 31.605714 120.434486 -57.899993 -87.018231 0.845657 -0.304066 4.710911 -7.125000 0.000000 0.000000 70.330801 -4.969679 8.640523 -18.745104 26.613087 -5.379073 0.657178 -0.843360 16.846705 7.125000 0.000000 0.000000 
0.083728 17.900318 -0.866256 3.752564 -8.374485 3.427848 -21.684564 -3.975900 -2.825660 -0.899553 3.033095 12.346898 -0.390398 2.191099 -1.669411 0.368700 -3.900500 -10.796800 10.284932 11.612681 -9.777751 -1.367801 -8.472421 26.069757 -0.652816 1.656403 -8.199982 -0.032200 -1.157800 3.183000 1.863539 -2.243198 -0.628906 5.496681 -0.782447 0.976553 2.140671 5.875862 13.449040 3.310500 2.025700 9.561700 -54.673418 -50.847364 30.938251 120.112328 -58.003812 -86.771106 0.845530 -0.310989 4.620440 -7.125000 0.000000 0.000000 70.316843 -4.795472 8.611667 -18.764807 26.636061 -5.389143 0.638379 -0.846953 16.980810 7.125000 0.000000 0.000000 
0.082529 17.900917 -0.864557 3.775467 -8.400139 3.420866 -21.704302 -3.943421 -2.792085 -0.904906 3.010591 12.287932 -0.389623 2.182325 -1.648428 0.362100 -3.865600 -10.698700 10.265861 11.665566 -9.760036 -1.368382 -8.475353 26.076338 -0.649837 1.624018 -8.239748 -0.025800 -1.037400 2.851700 1.858193 -2.221674 -0.587501 5.529324 -0.775270 1.027885 2.110789 5.878765 13.361972 3.293000 2.033700 9.573800 -54.099396 -51.311281 30.211869 119.814165 -58.100298 -86.540519 0.841326 -0.317317 4.426731 -7.125000 0.000000 0.000000 70.328297 -4.669925 8.686022 -18.828875 26.704770 -5.417766 0.643869 -0.835208 17.016720 7.125000 0.000000 0.000000 
0.081830 17.899918 -0.863258 3.829298 -8.397189 3.411096 -21.760535 -3.900428 -2.784589 -0.905905 3.001877 12.268104 -0.384125 2.149762 -1.641652 0.369300 -3.903600 -10.805600 10.210448 11.658211 -9.751487 -1.368266 -8.475717 26.073219 -0.656756 1.660079 -8.243234 -0.026500 -1.050200 2.887000 1.853000 -2.225886 -0.564995 5.569004 -0.780627 1.061462 2.113888 5.894104 13.207491 3.292700 2.050000 9.538500 -53.581691 -51.673732 29.542933 119.509781 -58.196936 -86.305672 0.838738 -0.323370 4.335682 -7.125000 0.000000 0.000000 70.303896 -4.620656 8.885360 -18.936078 26.826791 -5.468545 0.651541 -0.821527 16.823180 7.125000 0.000000 0.000000 
0.082030 17.899918 -0.863658 3.861639 -8.362948 3.400016 -21.795376 -3.916053 -2.768557 -0.904222 3.006967 12.282986 -0.386622 2.164957 -1.657064 0.390700 -4.013400 -11.114400 10.179959 11.631587 -9.742100 -1.367337 -8.474306 26.066866 -0.655132 1.650933 -8.238225 -0.031000 -1.136500 3.124500 1.856084 -2.246002 -0.551133 5.605351 -0.791906 1.055337 2.069910 5.910625 12.937518 3.274500 2.066900 9.459500 -53.125727 -52.030023 28.888356 119.247580 -58.281358 -86.104282 0.837242 -0.329438 4.394177 -7.125000 0.000000 0.000000 70.285699 -4.545088 9.040430 -19.010974 26.913663 -5.505829 0.648372 -0.820004 16.733596 7.125000 0.000000 0.000000 
0.081930 17.901617 -0.863758 3.803499 -8.359248 3.427996 -21.728804 -3.958470 -2.802930 -0.900716 3.026710 12.331346 -0.384042 2.162342 -1.711095 0.391700 -4.018700 -11.129400 10.244299 11.649218 -9.743719 -1.364584 -8.467168 26.052572 -0.652776 1.631324 -8.261919 -0.032100 -1.156700 3.180000 1.880877 -2.269034 -0.581076 5.610427 -0.799251 0.976481 2.001274 5.939172 12.687059 3.248900 2.086500 9.391200 -52.582083 -52.323035 28.169512 118.959820 -58.373302 -85.881937 0.834316 -0.334575 4.310124 -7.125000 0.000000 0.000000 70.274507 -4.496197 9.178331 -19.047237 26.960017 -5.526663 0.638377 -0.829561 16.757727 7.125000 0.000000 0.000000 
0.082229 17.901717 -0.864357 3.696207 -8.374490 3.445790 -21.608164 -4.003849 -2.836693 -0.899132 3.042583 12.364808 -0.387795 2.189606 -1.729085 0.376900 -3.943200 -10.916800 10.362073 11.685699 -9.725880 -1.362938 -8.459715 26.043493 -0.647923 1.606045 -8.271037 -0.033700 -1.184700 3.257100 1.903094 -2.246290 -0.580633 5.575272 -0.786291 0.934715 2.021062 5.927159 12.436429 3.252300 2.095300 9.328000 -52.083505 -52.687120 27.562440 118.630304 -58.476624 -85.626345 0.833200 -0.341623 4.253220 -7.125000 0.000000 0.000000 70.307145 -4.384455 9.122932 -19.034433 26.946320 -5.522823 0.623033 -0.842763 16.930019 7.125000 0.000000 0.000000 
0.081330 17.900218 -0.866356 3.703686 -8.360151 3.427169 -21.608855 -3.956716 -2.874780 -0.894403 3.055321 12.400526 -0.377631 2.127664 -1.676498 0.387600 -3.997700 -11.070100 10.362785 11.672013 -9.714884 -1.360874 -8.455524 26.031611 -0.644244 1.585712 -8.268108 -0.032100 -1.157200 3.181300 1.910056 -2.245426 -0.561552 5.613750 -0.785529 0.918121 1.915108 5.955677 12.248241 3.210500 2.111000 9.296800 -51.625315 -53.026500 26.958168 118.468263 -58.536542 -85.498719 0.831911 -0.341906 4.257842 -7.125000 0.000000 0.000000 70.284576 -4.232726 9.189527 -19.008090 26.914287 -5.509134 0.613392 -0.845402 17.076890 7.125000 0.000000 0.000000 
